<svg width="118" height="24" viewBox="0 0 118 24" fill="none" xmlns="http://www.w3.org/2000/svg">
<path d="M4.44 15.568C3.944 16.256 3.688 16.816 3.672 17.248C3.656 17.664 3.832 17.976 4.2 18.184C4.568 18.376 5.064 18.488 5.688 18.52L5.568 19C4.896 18.968 4.312 18.952 3.816 18.952C3.336 18.936 2.88 18.928 2.448 18.928C2.08 18.928 1.776 18.936 1.536 18.952C1.296 18.952 1.048 18.968 0.792 19L0.888 18.52C1.176 18.44 1.448 18.312 1.704 18.136C1.944 17.96 2.224 17.696 2.544 17.344C2.848 16.992 3.2 16.536 3.6 15.976L13.608 1.888C13.816 1.904 14.024 1.912 14.232 1.912C14.456 1.912 14.656 1.904 14.832 1.888L15.792 16.984C15.84 17.56 15.984 17.96 16.224 18.184C16.48 18.392 16.728 18.504 16.968 18.52L16.872 19C16.472 18.968 15.936 18.952 15.264 18.952C14.608 18.936 13.984 18.928 13.392 18.928C12.672 18.928 11.992 18.936 11.352 18.952C10.712 18.952 10.192 18.968 9.792 19L9.888 18.52C10.656 18.488 11.2 18.352 11.52 18.112C11.856 17.856 12 17.32 11.952 16.504L11.376 5.464L12.192 4.6L4.44 15.568ZM6.672 12.088H13.68L13.488 12.568H6.24L6.672 12.088ZM22.4477 19H19.0637L21.9677 8.632C22.0477 8.408 22.0957 8.208 22.1117 8.032C22.1437 7.84 22.1277 7.696 22.0637 7.6C21.9997 7.488 21.8797 7.432 21.7037 7.432C21.4157 7.432 21.1517 7.568 20.9117 7.84C20.6877 8.096 20.4397 8.592 20.1677 9.328L19.7117 10.552H19.2557L19.9037 8.728C20.2237 7.816 20.6397 7.176 21.1517 6.808C21.6797 6.44 22.2957 6.256 22.9997 6.256C23.5757 6.256 24.0157 6.36 24.3197 6.568C24.6237 6.76 24.8237 7.024 24.9197 7.36C25.0317 7.696 25.0717 8.064 25.0397 8.464C25.0237 8.848 24.9677 9.232 24.8717 9.616L22.4477 19ZM23.2157 14.944C23.8397 13.2 24.4157 11.768 24.9437 10.648C25.4877 9.512 26.0157 8.624 26.5277 7.984C27.0557 7.344 27.5917 6.896 28.1357 6.64C28.6797 6.384 29.2637 6.256 29.8877 6.256C30.6557 6.256 31.2077 6.424 31.5437 6.76C31.8797 7.096 32.0477 7.544 32.0477 8.104C32.0477 8.648 31.9437 9.24 31.7357 9.88L29.3837 16.96C29.2237 17.408 29.1837 17.72 29.2637 17.896C29.3437 18.072 29.4877 18.16 29.6957 18.16C29.9037 18.16 30.1357 18.048 30.3917 17.824C30.6477 17.584 30.9197 17.064 31.2077 16.264L31.6397 15.112H32.0957L31.4957 16.864C31.2717 17.536 30.9757 18.048 30.6077 18.4C30.2557 18.752 29.8717 18.992 29.4557 19.12C29.0557 19.264 28.6637 19.336 28.2797 19.336C27.8157 19.336 27.4237 19.264 27.1037 19.12C26.7837 18.992 26.5357 18.8 26.3597 18.544C26.1517 18.224 26.0477 17.824 26.0477 17.344C26.0637 16.848 26.1917 16.24 26.4317 15.52L28.5917 9.04C28.6877 8.784 28.7517 8.536 28.7837 8.296C28.8157 8.056 28.8077 7.856 28.7597 7.696C28.7117 7.536 28.5757 7.456 28.3517 7.456C28.0477 7.456 27.7037 7.656 27.3197 8.056C26.9357 8.44 26.5277 8.984 26.0957 9.688C25.6797 10.376 25.2637 11.184 24.8477 12.112C24.4317 13.04 24.0317 14.032 23.6477 15.088C23.2637 16.128 22.9197 17.2 22.6157 18.304L23.2157 14.944ZM37.3886 2.584C37.4206 1.896 37.6686 1.368 38.1326 0.999999C38.6126 0.631999 39.1806 0.447999 39.8366 0.447999C40.4286 0.447999 40.8766 0.591999 41.1806 0.879999C41.5006 1.152 41.6446 1.536 41.6126 2.032C41.5806 2.656 41.3246 3.168 40.8446 3.568C40.3646 3.952 39.7886 4.144 39.1166 4.144C38.5566 4.144 38.1166 4.008 37.7966 3.736C37.4926 3.448 37.3566 3.064 37.3886 2.584ZM36.4766 8.632C36.7486 7.832 36.6606 7.432 36.2126 7.432C35.9246 7.432 35.6606 7.576 35.4206 7.864C35.1806 8.152 34.9326 8.64 34.6766 9.328L34.1966 10.552H33.7406L34.4126 8.728C34.6366 8.088 34.9166 7.592 35.2526 7.24C35.6046 6.888 35.9886 6.64 36.4046 6.496C36.8366 6.336 37.2846 6.256 37.7486 6.256C38.3086 6.256 38.7486 6.36 39.0686 6.568C39.3886 6.776 39.6046 7.048 39.7166 7.384C39.8286 7.704 39.8686 8.064 39.8366 8.464C39.8046 8.848 39.7246 9.232 39.5966 9.616L37.0766 16.96C36.9326 17.392 36.8926 17.704 36.9566 17.896C37.0366 18.072 37.1886 18.16 37.4126 18.16C37.6206 18.16 37.8446 18.04 38.0846 17.8C38.3406 17.56 38.6206 17.048 38.9246 16.264L39.3566 15.112H39.8126L39.1886 16.864C38.9646 17.52 38.6766 18.024 38.3246 18.376C37.9726 18.728 37.5886 18.976 37.1726 19.12C36.7726 19.264 36.3646 19.336 35.9486 19.336C35.2606 19.336 34.7326 19.184 34.3646 18.88C34.0126 18.576 33.8206 18.136 33.7886 17.56C33.7566 16.984 33.8686 16.304 34.1246 15.52L36.4766 8.632ZM50.523 6.592L50.451 7.072H42.123L42.243 6.592H50.523ZM44.811 16.96C44.699 17.376 44.707 17.68 44.835 17.872C44.979 18.064 45.187 18.16 45.459 18.16C45.795 18.16 46.131 17.992 46.467 17.656C46.803 17.32 47.099 16.8 47.355 16.096L47.715 15.112H48.171L47.691 16.504C47.371 17.464 46.899 18.176 46.275 18.64C45.667 19.104 44.939 19.336 44.091 19.336C43.355 19.336 42.787 19.168 42.387 18.832C41.987 18.496 41.747 18.04 41.667 17.464C41.603 16.872 41.667 16.224 41.859 15.52L45.459 3.016C46.147 3 46.771 2.968 47.331 2.92C47.891 2.872 48.427 2.792 48.939 2.68L44.811 16.96ZM53.5359 18.04C53.7919 18.04 54.0719 17.904 54.3759 17.632C54.6799 17.36 54.9919 16.968 55.3119 16.456C55.6319 15.928 55.9439 15.288 56.2479 14.536C56.5519 13.784 56.8319 12.912 57.0879 11.92L56.5599 14.536C56.1599 15.72 55.7199 16.664 55.2399 17.368C54.7599 18.072 54.2479 18.576 53.7039 18.88C53.1599 19.184 52.5919 19.336 51.9999 19.336C51.1039 19.336 50.4319 19.072 49.9839 18.544C49.5359 18.016 49.3119 17.296 49.3119 16.384C49.3119 15.52 49.4559 14.616 49.7439 13.672C50.0479 12.728 50.4479 11.816 50.9439 10.936C51.4559 10.056 52.0239 9.264 52.6479 8.56C53.2879 7.856 53.9599 7.296 54.6639 6.88C55.3839 6.464 56.0879 6.256 56.7759 6.256C57.3039 6.256 57.7119 6.464 57.9999 6.88C58.2879 7.296 58.3759 7.944 58.2639 8.824L57.9999 8.968C58.0799 8.392 58.0479 7.944 57.9039 7.624C57.7759 7.304 57.5519 7.144 57.2319 7.144C56.9119 7.144 56.5519 7.328 56.1519 7.696C55.7679 8.064 55.3839 8.568 54.9999 9.208C54.6159 9.848 54.2559 10.576 53.9199 11.392C53.5999 12.192 53.3439 13.04 53.1519 13.936C52.9599 14.816 52.8639 15.688 52.8639 16.552C52.8639 17.096 52.9199 17.48 53.0319 17.704C53.1439 17.928 53.3119 18.04 53.5359 18.04ZM58.6239 6.616C59.3119 6.6 59.9359 6.568 60.4959 6.52C61.0559 6.456 61.5919 6.368 62.1039 6.256L58.9599 16.96C58.9119 17.168 58.8719 17.368 58.8399 17.56C58.8239 17.736 58.8479 17.88 58.9119 17.992C58.9919 18.104 59.1199 18.16 59.2959 18.16C59.5039 18.16 59.7359 18.04 59.9919 17.8C60.2479 17.544 60.5119 17.032 60.7839 16.264L61.2159 15.112H61.6719L61.0719 16.864C60.8479 17.52 60.5599 18.024 60.2079 18.376C59.8559 18.728 59.4799 18.976 59.0799 19.12C58.6799 19.264 58.2879 19.336 57.9039 19.336C57.0719 19.336 56.4799 19.088 56.1279 18.592C55.8879 18.24 55.7759 17.808 55.7919 17.296C55.8239 16.768 55.9359 16.168 56.1279 15.496L58.6239 6.616ZM78.1028 10.216L78.0308 10.696H68.7428L68.8148 10.216H78.1028ZM73.0388 5.392C72.5428 5.392 72.0708 5.336 71.6228 5.224C71.1748 5.096 70.7428 4.952 70.3268 4.792C69.9268 4.632 69.5268 4.496 69.1268 4.384C68.7268 4.256 68.3188 4.192 67.9028 4.192C67.4548 4.192 67.0948 4.304 66.8228 4.528C66.5668 4.752 66.4388 5.096 66.4388 5.56C66.4548 6.072 66.6708 6.488 67.0868 6.808C67.5188 7.112 68.2068 7.312 69.1508 7.408C69.1508 7.408 69.1348 7.488 69.1028 7.648C69.0868 7.792 69.0788 7.864 69.0788 7.864C68.2948 7.8 67.5828 7.64 66.9428 7.384C66.3188 7.112 65.8228 6.736 65.4548 6.256C65.1028 5.76 64.9188 5.16 64.9028 4.456C64.8868 3.528 65.1668 2.768 65.7428 2.176C66.3188 1.568 67.1748 1.264 68.3108 1.264C68.9348 1.264 69.4868 1.352 69.9668 1.528C70.4468 1.688 70.8948 1.888 71.3108 2.128C71.7268 2.352 72.1428 2.584 72.5588 2.824C72.9908 3.064 73.4468 3.272 73.9268 3.448C74.4068 3.608 74.9588 3.688 75.5828 3.688C76.2228 3.688 76.8948 3.608 77.5988 3.448C78.3028 3.288 78.9828 3.056 79.6388 2.752C79.9748 2.24 80.3028 1.848 80.6228 1.576C80.9428 1.304 81.2228 1.272 81.4628 1.48C81.6548 1.64 81.6468 1.856 81.4388 2.128C81.2308 2.4 80.7028 2.696 79.8548 3.016C78.7188 3.928 77.7988 5.128 77.0948 6.616C76.3908 8.104 75.7988 9.776 75.3188 11.632L73.8308 17.44C73.5588 18.528 73.1348 19.536 72.5588 20.464C71.9828 21.392 71.2148 22.128 70.2548 22.672C69.3108 23.232 68.1348 23.512 66.7268 23.512C66.1028 23.512 65.5348 23.448 65.0228 23.32C64.5268 23.208 64.1268 23.016 63.8228 22.744C63.5188 22.488 63.3668 22.144 63.3668 21.712C63.3668 21.2 63.5428 20.768 63.8948 20.416C64.2468 20.064 64.7428 19.888 65.3828 19.888C65.9108 19.888 66.3508 20.008 66.7028 20.248C67.0548 20.504 67.2388 20.864 67.2548 21.328C67.2548 21.712 67.1348 22.048 66.8948 22.336C66.6708 22.624 66.3508 22.856 65.9348 23.032C66.0468 23.064 66.1588 23.08 66.2708 23.08C66.3828 23.096 66.4948 23.104 66.6068 23.104C67.0868 23.104 67.4868 22.968 67.8068 22.696C68.1428 22.424 68.4308 22.032 68.6708 21.52C68.9108 21.008 69.1348 20.392 69.3428 19.672C69.5668 18.968 69.7908 18.184 70.0148 17.32L71.3108 12.712C71.6308 11.496 72.0468 10.432 72.5588 9.52C73.0708 8.608 73.6548 7.8 74.3108 7.096C74.9828 6.376 75.7188 5.712 76.5188 5.104C77.3348 4.496 78.2068 3.888 79.1348 3.28C78.5268 3.472 77.9748 3.696 77.4788 3.952C76.9828 4.192 76.5028 4.424 76.0388 4.648C75.5908 4.872 75.1268 5.056 74.6468 5.2C74.1668 5.328 73.6308 5.392 73.0388 5.392ZM82.2469 18.04C82.5029 18.04 82.7829 17.904 83.0869 17.632C83.3909 17.36 83.7029 16.968 84.0229 16.456C84.3429 15.928 84.6549 15.288 84.9589 14.536C85.2629 13.784 85.5429 12.912 85.7989 11.92L85.2709 14.536C84.8709 15.72 84.4309 16.664 83.9509 17.368C83.4709 18.072 82.9589 18.576 82.4149 18.88C81.8709 19.184 81.3029 19.336 80.7109 19.336C79.8149 19.336 79.1429 19.072 78.6949 18.544C78.2469 18.016 78.0229 17.296 78.0229 16.384C78.0229 15.52 78.1669 14.616 78.4549 13.672C78.7589 12.728 79.1589 11.816 79.6549 10.936C80.1669 10.056 80.7349 9.264 81.3589 8.56C81.9989 7.856 82.6709 7.296 83.3749 6.88C84.0949 6.464 84.7989 6.256 85.4869 6.256C86.0149 6.256 86.4229 6.464 86.7109 6.88C86.9989 7.296 87.0869 7.944 86.9749 8.824L86.7109 8.968C86.7909 8.392 86.7589 7.944 86.6149 7.624C86.4869 7.304 86.2629 7.144 85.9429 7.144C85.6229 7.144 85.2629 7.328 84.8629 7.696C84.4789 8.064 84.0949 8.568 83.7109 9.208C83.3269 9.848 82.9669 10.576 82.6309 11.392C82.3109 12.192 82.0549 13.04 81.8629 13.936C81.6709 14.816 81.5749 15.688 81.5749 16.552C81.5749 17.096 81.6309 17.48 81.7429 17.704C81.8549 17.928 82.0229 18.04 82.2469 18.04ZM87.3349 6.616C88.0229 6.6 88.6469 6.568 89.2069 6.52C89.7669 6.456 90.3029 6.368 90.8149 6.256L87.6709 16.96C87.6229 17.168 87.5829 17.368 87.5509 17.56C87.5349 17.736 87.5589 17.88 87.6229 17.992C87.7029 18.104 87.8309 18.16 88.0069 18.16C88.2149 18.16 88.4469 18.04 88.7029 17.8C88.9589 17.544 89.2229 17.032 89.4949 16.264L89.9269 15.112H90.3829L89.7829 16.864C89.5589 17.52 89.2709 18.024 88.9189 18.376C88.5669 18.728 88.1909 18.976 87.7909 19.12C87.3909 19.264 86.9989 19.336 86.6149 19.336C85.7829 19.336 85.1909 19.088 84.8389 18.592C84.5989 18.24 84.4869 17.808 84.5029 17.296C84.5349 16.768 84.6469 16.168 84.8389 15.496L87.3349 6.616ZM95.1977 19H91.8137L94.7177 8.632C94.7977 8.408 94.8457 8.208 94.8617 8.032C94.8937 7.84 94.8777 7.696 94.8137 7.6C94.7497 7.488 94.6297 7.432 94.4537 7.432C94.1657 7.432 93.9017 7.568 93.6617 7.84C93.4377 8.096 93.1897 8.592 92.9177 9.328L92.4617 10.552H92.0057L92.6537 8.728C92.9737 7.816 93.3897 7.176 93.9017 6.808C94.4297 6.44 95.0457 6.256 95.7497 6.256C96.3257 6.256 96.7657 6.36 97.0697 6.568C97.3737 6.76 97.5737 7.024 97.6697 7.36C97.7817 7.696 97.8217 8.064 97.7897 8.464C97.7737 8.848 97.7177 9.232 97.6217 9.616L95.1977 19ZM95.9657 14.944C96.5897 13.2 97.1657 11.768 97.6937 10.648C98.2377 9.512 98.7657 8.624 99.2777 7.984C99.8057 7.344 100.342 6.896 100.886 6.64C101.43 6.384 102.014 6.256 102.638 6.256C103.406 6.256 103.958 6.424 104.294 6.76C104.63 7.096 104.798 7.544 104.798 8.104C104.798 8.648 104.694 9.24 104.486 9.88L102.134 16.96C101.974 17.408 101.934 17.72 102.014 17.896C102.094 18.072 102.238 18.16 102.446 18.16C102.654 18.16 102.886 18.048 103.142 17.824C103.398 17.584 103.67 17.064 103.958 16.264L104.39 15.112H104.846L104.246 16.864C104.022 17.536 103.726 18.048 103.358 18.4C103.006 18.752 102.622 18.992 102.206 19.12C101.806 19.264 101.414 19.336 101.03 19.336C100.566 19.336 100.174 19.264 99.8537 19.12C99.5337 18.992 99.2857 18.8 99.1097 18.544C98.9017 18.224 98.7977 17.824 98.7977 17.344C98.8137 16.848 98.9417 16.24 99.1817 15.52L101.342 9.04C101.438 8.784 101.502 8.536 101.534 8.296C101.566 8.056 101.558 7.856 101.51 7.696C101.462 7.536 101.326 7.456 101.102 7.456C100.798 7.456 100.454 7.656 100.07 8.056C99.6857 8.44 99.2777 8.984 98.8457 9.688C98.4297 10.376 98.0137 11.184 97.5977 12.112C97.1817 13.04 96.7817 14.032 96.3977 15.088C96.0137 16.128 95.6697 17.2 95.3657 18.304L95.9657 14.944ZM109.035 13.792C109.691 13.536 110.315 13.248 110.907 12.928C111.499 12.608 112.003 12.256 112.419 11.872C113.043 11.312 113.539 10.664 113.907 9.928C114.291 9.176 114.483 8.368 114.483 7.504C114.483 7.184 114.451 6.976 114.387 6.88C114.323 6.768 114.227 6.712 114.099 6.712C113.747 6.712 113.363 6.896 112.947 7.264C112.547 7.616 112.147 8.096 111.747 8.704C111.347 9.296 110.979 9.976 110.643 10.744C110.323 11.512 110.059 12.312 109.851 13.144C109.659 13.976 109.563 14.784 109.563 15.568C109.563 16.464 109.731 17.08 110.067 17.416C110.419 17.736 110.867 17.896 111.411 17.896C111.843 17.896 112.379 17.752 113.019 17.464C113.659 17.176 114.291 16.664 114.915 15.928L115.299 16.12C114.963 16.648 114.523 17.16 113.979 17.656C113.435 18.152 112.803 18.56 112.083 18.88C111.363 19.184 110.579 19.336 109.731 19.336C109.011 19.336 108.363 19.208 107.787 18.952C107.227 18.696 106.779 18.32 106.443 17.824C106.123 17.312 105.963 16.688 105.963 15.952C105.963 15.104 106.099 14.232 106.371 13.336C106.659 12.44 107.059 11.576 107.571 10.744C108.083 9.896 108.699 9.136 109.419 8.464C110.139 7.776 110.939 7.24 111.819 6.856C112.699 6.456 113.635 6.256 114.627 6.256C115.331 6.256 115.923 6.416 116.403 6.736C116.883 7.04 117.123 7.512 117.123 8.152C117.123 8.776 116.947 9.36 116.595 9.904C116.259 10.448 115.803 10.944 115.227 11.392C114.651 11.84 114.003 12.24 113.283 12.592C112.579 12.944 111.851 13.248 111.099 13.504C110.363 13.76 109.667 13.96 109.011 14.104L109.035 13.792Z" fill="#1F2937"/>
</svg>
