<svg width="16" height="16" viewBox="0 0 16 16" fill="none" xmlns="http://www.w3.org/2000/svg">
<path d="M5.5 14C6.05228 14 6.5 13.5523 6.5 13C6.5 12.4477 6.05228 12 5.5 12C4.94772 12 4.5 12.4477 4.5 13C4.5 13.5523 4.94772 14 5.5 14Z" fill="white"/>
<path d="M12.5 14C13.0523 14 13.5 13.5523 13.5 13C13.5 12.4477 13.0523 12 12.5 12C11.9477 12 11.5 12.4477 11.5 13C11.5 13.5523 11.9477 14 12.5 14Z" fill="white"/>
<path d="M14.3188 3.83437C14.2063 3.66875 14.0375 3.55313 13.8406 3.51562C13.7937 3.50625 13.7438 3.5 13.6938 3.5H4.18437L3.99375 2.4125C3.95313 2.175 3.74375 2 3.5 2H1.5C1.225 2 1 2.225 1 2.5C1 2.775 1.225 3 1.5 3H3.08125L4.50938 11.0875C4.55 11.325 4.75938 11.5 5.00313 11.5H13.0031C13.2781 11.5 13.5031 11.275 13.5031 11C13.5031 10.725 13.2781 10.5 13.0031 10.5H5.41875L5.24375 9.5H12.7969C13.1531 9.5 13.4625 9.24688 13.5312 8.89688L14.4312 4.39687C14.4687 4.2 14.4313 4 14.3188 3.83437ZM12.5906 8.5H5.06563L4.35938 4.5H13.3875L12.5906 8.5Z" fill="white"/>
</svg>
