<svg width="24" height="24" viewBox="0 0 24 24" fill="none" xmlns="http://www.w3.org/2000/svg">
<path fill-rule="evenodd" clip-rule="evenodd" d="M2.25004 8.28028C2.27928 5.42838 4.54489 3 7.45687 3C9.24426 3 10.559 3.88475 11.398 4.71777C11.6316 4.94972 11.8321 5.18108 12 5.39441C12.1679 5.18108 12.3684 4.94972 12.602 4.71777C13.441 3.88475 14.7557 3 16.5431 3C19.4551 3 21.7207 5.42838 21.75 8.28028L21.75 8.28049C21.7662 9.90973 21.3942 11.3919 20.7472 12.75H21.75C22.1642 12.75 22.5 13.0858 22.5 13.5C22.5 13.9142 22.1642 14.25 21.75 14.25H19.8938C18.1856 16.8255 15.5188 18.9244 12.8438 20.7403C12.5949 20.9095 12.3009 21.0001 12 21.0001C11.6991 21.0001 11.4051 20.9095 11.1562 20.7403C7.97943 18.584 4.81434 16.0285 3.2525 12.75H2.25C1.83579 12.75 1.5 12.4142 1.5 12C1.5 11.5858 1.83579 11.25 2.25 11.25H2.67083C2.38981 10.317 2.23949 9.32918 2.25004 8.28042L2.25004 8.28028ZM4.944 12.75C6.39984 15.3202 9.03535 17.4879 11.9993 19.4996L12 19.5001L12.0007 19.4996C14.3699 17.8914 16.5293 16.1835 18.0441 14.25H15.75C15.4659 14.25 15.2062 14.0895 15.0792 13.8354L14.25 12.177L12.6708 15.3354C12.5333 15.6104 12.2419 15.7737 11.9355 15.7472C11.6292 15.7208 11.37 15.51 11.2816 15.2155L9.57506 9.52694L8.17082 12.3354C8.04378 12.5895 7.78408 12.75 7.5 12.75H4.944ZM19.0557 12.75C19.8261 11.39 20.2662 9.91735 20.25 8.29545C20.2285 6.20963 18.5773 4.5 16.5431 4.5C15.2874 4.5 14.3306 5.11525 13.6588 5.78223C13.3245 6.11413 13.0728 6.44793 12.9053 6.69831C12.8219 6.82288 12.7606 6.92508 12.7213 6.9937C12.7017 7.02796 12.6877 7.0537 12.6792 7.0695C12.6788 7.0703 12.703 7.02136 12.6699 7.08732C12.5425 7.3403 12.2834 7.5 12 7.5C11.7166 7.5 11.4575 7.34029 11.3301 7.08729C11.33 7.08698 11.3297 7.08638 11.3292 7.0855C11.3278 7.08278 11.325 7.07739 11.3208 7.0695C11.3123 7.0537 11.2983 7.02796 11.2787 6.9937C11.2394 6.92508 11.1781 6.82288 11.0947 6.69831C10.9272 6.44793 10.6755 6.11413 10.3412 5.78223C9.66942 5.11525 8.71261 4.5 7.45687 4.5C5.42265 4.5 3.77142 6.20966 3.74996 8.29551M19.0557 12.75H16.2135L14.9208 10.1646C14.7938 9.9105 14.5341 9.75 14.25 9.75C13.9659 9.75 13.7062 9.9105 13.5792 10.1646L12.1749 12.9731L10.4684 7.28449C10.38 6.98997 10.1208 6.77922 9.81449 6.75278C9.50814 6.72634 9.21669 6.88957 9.07918 7.16459L7.03647 11.25H4.25147C3.91784 10.3205 3.73948 9.33894 3.74996 8.29566" fill="#1F2937"/>
</svg>
