<svg width="24" height="24" viewBox="0 0 24 24" fill="none" xmlns="http://www.w3.org/2000/svg">
<path d="M23.5102 10.7755H14.6939V0.489796C14.6939 0.219331 14.4746 0 14.2041 0H0.489796C0.219282 0 0 0.219331 0 0.489796V23.5102C0 23.7807 0.219282 24 0.489796 24H13.4694C13.7399 24 13.9592 23.7807 13.9592 23.5102V22.0408H19.8367V23.5102C19.8367 23.7807 20.056 24 20.3265 24H22.0408C22.3113 24 22.5306 23.7807 22.5306 23.5102V22.0408H22.7755C23.046 22.0408 23.2653 21.8215 23.2653 21.551V13.4694H23.5102C23.7807 13.4694 24 13.2501 24 12.9796V11.2653C24 10.9948 23.7807 10.7755 23.5102 10.7755ZM6.85714 23.0204H0.979592V18.8571H6.85714V23.0204ZM6.85714 17.8776H0.979592V0.979592H6.85714V17.8776ZM11.2653 23.0204H7.83674V0.979592H13.7143V10.7755H10.0408C9.7703 10.7755 9.55102 10.9948 9.55102 11.2653V12.9796C9.55102 13.2501 9.7703 13.4694 10.0408 13.4694H10.5306V21.551C10.5306 21.8215 10.7499 22.0408 11.0204 22.0408H11.2653V23.0204ZM12.9796 23.0204H12.2449V22.0408H12.9796V23.0204ZM21.551 23.0204H20.8163V22.0408H21.551V23.0204ZM22.2857 21.0612H11.5102V17.6327H22.2857V21.0612ZM22.2857 16.6531H11.5102V13.4694H22.2857V16.6531ZM23.0204 12.4898H10.5306V11.7551H23.0204V12.4898Z" fill="#6B7280"/>
<path d="M17.6327 14.449H16.1633V15.4286H17.6327V14.449Z" fill="#6B7280"/>
<path d="M17.6327 18.6133H16.1633V19.5929H17.6327V18.6133Z" fill="#6B7280"/>
<path d="M9.796 7.83594H8.81641V9.79512H9.796V7.83594Z" fill="#6B7280"/>
<path d="M5.87754 7.83594H4.89795V9.79512H5.87754V7.83594Z" fill="#6B7280"/>
<path d="M4.65298 20.3281H3.18359V21.3077H4.65298V20.3281Z" fill="#6B7280"/>
</svg>
