<svg width="22" height="24" viewBox="0 0 22 24" fill="none" xmlns="http://www.w3.org/2000/svg">
<path d="M21.6354 7.80675L11.2397 0.0899625C11.0798 -0.0299875 10.9198 -0.0299875 10.7599 0.0899625L0.644117 7.60683H0.604133V7.64681L0.364233 7.80675C0.244283 7.88671 0.2043 8.00666 0.2043 8.12661V9.606C0.2043 9.8459 0.364233 10.0058 0.604133 10.0058H1.80363V21.2012H2.6033V10.0058H19.3963V21.2012H20.196V10.0058H21.3955C21.6354 10.0058 21.7953 9.8459 21.7953 9.606V8.12661C21.7953 8.00666 21.7557 7.88671 21.6354 7.80675ZM20.9956 9.20616H19.7961H2.20347H1.00397V8.4065H16.9973V7.60683H1.96357L10.9998 0.889629L20.9956 8.32653V9.20616Z" fill="#6B7280"/>
<path d="M11.7995 3.60938H10.2001V4.40904H11.7995V3.60938Z" fill="#6B7280"/>
<path d="M12.999 5.20703H9.00069V6.0067H12.999V5.20703Z" fill="#6B7280"/>
<path d="M4.2027 10.8047H3.40303V11.6044H4.2027V10.8047Z" fill="#6B7280"/>
<path d="M5.80206 10.8047H5.0024V11.6044H5.80206V10.8047Z" fill="#6B7280"/>
<path d="M7.40118 10.8047H6.60152V11.6044H7.40118V10.8047Z" fill="#6B7280"/>
<path d="M9.00055 10.8047H8.20088V11.6044H9.00055V10.8047Z" fill="#6B7280"/>
<path d="M10.5999 10.8047H9.80025V11.6044H10.5999V10.8047Z" fill="#6B7280"/>
<path d="M12.1993 10.8047H11.3996V11.6044H12.1993V10.8047Z" fill="#6B7280"/>
<path d="M13.7986 10.8047H12.999V11.6044H13.7986V10.8047Z" fill="#6B7280"/>
<path d="M15.398 10.8047H14.5983V11.6044H15.398V10.8047Z" fill="#6B7280"/>
<path d="M16.9974 10.8047H16.1977V11.6044H16.9974V10.8047Z" fill="#6B7280"/>
<path d="M18.5967 10.8047H17.7971V11.6044H18.5967V10.8047Z" fill="#6B7280"/>
<path d="M15.3981 14.5626L15.9179 15.0823L16.4776 14.5226L15.2781 13.3231C15.1182 13.1631 14.8783 13.1631 14.7184 13.3231L13.5189 14.5226L14.0786 15.0823L14.5984 14.5626V23.199H11.3997V17.7612L11.9195 18.281L12.4793 17.7212L11.2798 16.5217C11.1199 16.3618 10.88 16.3618 10.72 16.5217L9.52052 17.7212L10.0803 18.281L10.6001 17.7612V23.199H7.4014V19.7604L7.92119 20.2802L8.48095 19.7204L7.28145 18.5209C7.12152 18.361 6.88162 18.361 6.72168 18.5209L5.52218 19.7204L6.08195 20.2802L6.60173 19.7604V23.199H2.20357V23.9986H6.60173H7.4014H10.6001H11.3997H14.5984H15.3981H20.1961V23.199H15.3981V14.5626Z" fill="#6B7280"/>
<path d="M7.4013 12.8047H5.40213V13.6043H7.4013V12.8047Z" fill="#6B7280"/>
<path d="M7.40136 14.4023H3.40303V15.202H7.40136V14.4023Z" fill="#6B7280"/>
<path d="M7.40136 16.0039H3.40303V16.8036H7.40136V16.0039Z" fill="#6B7280"/>
<path d="M8.20097 13.6043H10.6V14.8038H11.3996V13.2045C11.3996 12.9646 11.2397 12.8047 10.9998 12.8047H8.20097V13.6043Z" fill="#6B7280"/>
</svg>
