<svg width="16" height="16" viewBox="0 0 16 16" fill="none" xmlns="http://www.w3.org/2000/svg">
<path d="M8.00043 14C7.80355 14 7.6098 13.9406 7.43793 13.825C6.26293 13.0281 4.55668 11.7937 3.33168 10.3C2.08168 8.77813 1.48168 7.2125 1.50043 5.51875C1.51918 3.57813 3.07855 2 4.9723 2C6.47543 2 7.4723 2.92188 8.00043 3.59375C8.52855 2.92188 9.52543 2 11.0286 2C12.9223 2 14.4786 3.57813 14.5004 5.51875C14.5161 7.2125 13.9192 8.77813 12.6692 10.3C11.4442 11.7937 9.73793 13.0281 8.56293 13.825C8.39105 13.9437 8.1973 14 8.00043 14ZM4.9723 3C3.62543 3 2.51605 4.13438 2.50043 5.53125C2.46605 8.8 5.26293 11.1438 8.00043 13C10.7379 11.1406 13.5348 8.8 13.5004 5.53125C13.4848 4.1375 12.3786 3 11.0286 3C9.34105 3 8.45355 4.70625 8.4473 4.725C8.36293 4.89375 8.19105 5 8.00043 5C7.8098 5 7.63793 4.89375 7.55355 4.72188C7.54418 4.70625 6.65668 3 4.9723 3Z" fill="#1F2937"/>
</svg>
