<svg width="24" height="24" viewBox="0 0 24 24" fill="none" xmlns="http://www.w3.org/2000/svg">
<g clip-path="url(#clip0_1_71)">
<path d="M0.476089 19.2889C0.268574 19.2889 0.100292 19.1207 0.100292 18.9131V11.5979C0.100292 11.3903 0.268526 11.2221 0.476089 11.2221H7.91661V6.23672C7.91661 5.61511 8.42229 5.10938 9.04395 5.10938H9.8456C11.2961 5.10938 12.4761 6.28945 12.4761 7.73986V10.1198H14.2047C14.4122 10.1198 14.5805 10.288 14.5805 10.4956C14.5805 10.7032 14.4123 10.8714 14.2047 10.8714H12.809C13.2376 11.481 13.7557 12.5049 13.678 13.8246C13.5875 15.3609 12.7331 16.3962 12.3699 16.77C12.2156 16.9288 11.9498 16.9172 11.8094 16.746C11.6899 16.6002 11.6995 16.3813 11.8308 16.2463C12.1354 15.9328 12.852 15.0649 12.9277 13.7804C13.0196 12.2187 12.1107 11.1477 11.8298 10.8567C11.7468 10.7707 11.7133 10.6553 11.7282 10.5454C11.7259 10.5291 11.7244 7.73986 11.7244 7.73986C11.7244 6.70378 10.8816 5.86097 9.84556 5.86097H9.0439C8.83667 5.86097 8.66811 6.02953 8.66811 6.23677V20.5165C8.66811 21.4145 9.39861 22.1449 10.2965 22.1449H15.2078C14.9714 21.8307 14.831 21.4403 14.831 21.0176C14.831 20.4036 15.1271 19.8575 15.5839 19.5144C15.1271 19.1714 14.831 18.6253 14.831 18.0113C14.831 17.3973 15.1271 16.8512 15.5839 16.5082C15.1271 16.1651 14.831 15.619 14.831 15.005C14.831 14.391 15.1271 13.845 15.5839 13.5019C15.1271 13.1588 14.831 12.6127 14.831 11.9987C14.831 10.9627 15.6739 10.1198 16.7099 10.1198H22.021C23.0571 10.1198 23.8999 10.9627 23.8999 11.9987C23.8999 12.6842 23.5308 13.2848 22.9811 13.6131C23.3606 13.9571 23.5993 14.4537 23.5993 15.005C23.5993 15.6905 23.2302 16.2911 22.6804 16.6193C23.0599 16.9634 23.2987 17.46 23.2987 18.0113C23.2987 18.7224 22.9016 19.3425 22.3174 19.6615C22.6747 20.0038 22.8979 20.4849 22.8979 21.0176C22.8979 22.0537 22.055 22.8965 21.019 22.8965H10.2966C9.1122 22.8965 8.12736 22.0267 7.94665 20.8923H6.66406V23.623C6.66406 23.8306 6.49582 23.9988 6.28826 23.9988H0.476137C0.268621 23.9988 0.10034 23.8306 0.10034 23.623V20.717C0.10034 20.5094 0.268574 20.3412 0.476137 20.3412C0.683699 20.3412 0.851933 20.5094 0.851933 20.717V23.2472H5.91242V11.9737H0.851887V18.9132C0.851887 19.1207 0.683653 19.2889 0.476089 19.2889ZM23.1484 11.9987C23.1484 11.3771 22.6427 10.8714 22.021 10.8714H16.7099C16.0883 10.8714 15.5826 11.3771 15.5826 11.9987C15.5826 12.6203 16.0883 13.1261 16.7099 13.1261H22.021C22.6426 13.1261 23.1484 12.6203 23.1484 11.9987ZM22.8477 15.005C22.8477 14.3834 22.342 13.8777 21.7204 13.8777H16.7099C16.0883 13.8777 15.5826 14.3834 15.5826 15.005C15.5826 15.6266 16.0883 16.1324 16.7099 16.1324H21.7204C22.342 16.1324 22.8477 15.6266 22.8477 15.005ZM22.5471 18.0112C22.5471 17.3896 22.0414 16.8839 21.4197 16.8839H16.7099C16.0883 16.8839 15.5826 17.3896 15.5826 18.0112C15.5826 18.6329 16.0883 19.1386 16.7099 19.1386H21.4197C22.0414 19.1386 22.5471 18.6329 22.5471 18.0112ZM16.7099 22.1449H21.0189C21.6406 22.1449 22.1463 21.6391 22.1463 21.0175C22.1463 20.3959 21.6406 19.8902 21.0189 19.8902H16.7099C16.0883 19.8902 15.5826 20.3959 15.5826 21.0175C15.5826 21.6391 16.0883 22.1449 16.7099 22.1449ZM6.66401 20.1407H7.91661V11.9737H6.66401V20.1407Z" fill="#6B7280"/>
<path d="M1.02785 6.91884C1.28299 6.88491 1.92593 6.74287 2.38493 6.15764C2.71104 5.74158 2.78937 5.29022 2.80699 5.05823C2.8219 4.86234 2.98526 4.71094 3.18171 4.71094C3.37816 4.71094 3.54152 4.8623 3.55643 5.05823C3.5741 5.29027 3.65243 5.74162 3.97849 6.15764C4.43754 6.74292 5.08047 6.88495 5.33557 6.91884C5.52237 6.94364 5.66187 7.10292 5.66187 7.29136C5.66187 7.4798 5.52232 7.63903 5.33557 7.66387C5.08043 7.69781 4.43749 7.83984 3.97849 8.42508C3.65238 8.84114 3.57405 9.2925 3.55643 9.52448C3.54148 9.72037 3.37821 9.87178 3.18171 9.87178C2.98521 9.87178 2.8219 9.72042 2.80699 9.52448C2.78932 9.29245 2.71099 8.84109 2.38498 8.42512C1.92588 7.8398 1.28294 7.69777 1.02785 7.66387C0.841053 7.63908 0.701552 7.4798 0.701552 7.29136C0.701552 7.10292 0.841099 6.94369 1.02785 6.91884ZM2.97654 7.96139C3.05468 8.06109 3.12269 8.16187 3.1818 8.26237C3.24096 8.16187 3.30902 8.06105 3.38716 7.96134C3.62299 7.66059 3.89308 7.44534 4.1568 7.29136C3.89294 7.13733 3.6229 6.92208 3.38712 6.62138L3.38707 6.62133C3.30893 6.52162 3.24091 6.42084 3.1818 6.32034C3.12265 6.42084 3.05458 6.52167 2.97644 6.62138C2.74062 6.92208 2.47052 7.13733 2.2068 7.29136C2.47057 7.44539 2.74062 7.66069 2.97654 7.96139Z" fill="#6B7280"/>
<path d="M11.4494 2.20786C11.7046 2.17392 12.3475 2.03189 12.8065 1.44666C13.1326 1.03059 13.2109 0.579234 13.2286 0.34725C13.2435 0.151359 13.4068 0 13.6033 0C13.7998 0 13.9632 0.151359 13.9781 0.347297C13.9957 0.579328 14.0741 1.03069 14.4001 1.4467C14.8592 2.03198 15.5021 2.17402 15.7572 2.20791C15.9439 2.23275 16.0835 2.39198 16.0835 2.58042C16.0835 2.76886 15.9439 2.92809 15.7572 2.95294C15.5021 2.98687 14.8591 3.12891 14.4001 3.71414C14.074 4.1302 13.9957 4.58156 13.9781 4.81355C13.9631 5.00944 13.7998 5.1608 13.6033 5.1608C13.4068 5.1608 13.2435 5.00944 13.2286 4.81355C13.2109 4.58152 13.1326 4.13016 12.8066 3.71419C12.3475 3.12886 11.7046 2.98683 11.4495 2.95294C11.2627 2.92809 11.1232 2.76886 11.1232 2.58042C11.1231 2.39194 11.2627 2.2327 11.4494 2.20786ZM13.3981 3.25041C13.4762 3.35011 13.5442 3.45089 13.6033 3.55139C13.6625 3.45089 13.7306 3.35006 13.8087 3.25036C14.0445 2.94966 14.3146 2.73441 14.5783 2.58037C14.3145 2.42634 14.0444 2.21109 13.8087 1.91039L13.8086 1.91034C13.7305 1.81064 13.6624 1.70986 13.6033 1.60936C13.5442 1.70986 13.4761 1.81069 13.398 1.91039C13.1622 2.21114 12.8921 2.42639 12.6283 2.58037C12.8922 2.73441 13.1622 2.9497 13.3981 3.25041Z" fill="#6B7280"/>
<path d="M19.0654 6.21572C19.3205 6.18178 19.9635 6.03975 20.4225 5.45452C20.7486 5.03845 20.827 4.58709 20.8446 4.35511C20.8595 4.15922 21.0229 4.00781 21.2193 4.00781C21.4158 4.00781 21.5791 4.15917 21.594 4.35511C21.6117 4.58714 21.69 5.0385 22.016 5.45447C22.4751 6.0398 23.1181 6.18183 23.3732 6.21572C23.5599 6.24056 23.6995 6.3998 23.6995 6.58823C23.6995 6.77667 23.5599 6.93591 23.3732 6.96075C23.118 6.99469 22.4751 7.13672 22.0161 7.72195C21.69 8.13801 21.6117 8.58938 21.594 8.82136C21.5791 9.01725 21.4158 9.16866 21.2193 9.16866C21.0228 9.16866 20.8595 9.0173 20.8446 8.82136C20.8269 8.58933 20.7486 8.13797 20.4226 7.722C19.9635 7.13667 19.3205 6.99464 19.0654 6.96075C18.8787 6.93595 18.7392 6.77667 18.7392 6.58823C18.7392 6.3998 18.8787 6.24056 19.0654 6.21572ZM21.0141 7.25831C21.0922 7.35802 21.1602 7.4588 21.2194 7.5593C21.2785 7.4588 21.3466 7.35797 21.4247 7.25827C21.6605 6.95752 21.9306 6.74227 22.1944 6.58828C21.9305 6.43425 21.6604 6.21895 21.4246 5.91825C21.3464 5.81855 21.2784 5.71777 21.2193 5.61727C21.1602 5.71777 21.0921 5.81855 21.014 5.91825L21.014 5.9183C20.7782 6.21905 20.5081 6.4343 20.2444 6.58828C20.5082 6.74227 20.7782 6.95756 21.0141 7.25831Z" fill="#6B7280"/>
</g>
<defs>
<clipPath id="clip0_1_71">
<rect width="24" height="24" fill="white" transform="matrix(-1 0 0 1 24 0)"/>
</clipPath>
</defs>
</svg>
