<svg width="16" height="16" viewBox="0 0 16 16" fill="none" xmlns="http://www.w3.org/2000/svg">
<rect width="16" height="16" fill="#F3F4F6"/>
<path fill-rule="evenodd" clip-rule="evenodd" d="M12 2.5C11.4477 2.5 11 2.94772 11 3.5C11 3.67243 11.0436 3.83467 11.1205 3.97627C11.1233 3.98085 11.126 3.98549 11.1286 3.99018C11.1311 3.9947 11.1336 3.99923 11.136 4.00379C11.3094 4.3006 11.6314 4.5 12 4.5C12.5523 4.5 13 4.05228 13 3.5C13 2.94772 12.5523 2.5 12 2.5ZM10.5573 4.88519C10.9213 5.26414 11.4331 5.5 12 5.5C13.1046 5.5 14 4.60457 14 3.5C14 2.39543 13.1046 1.5 12 1.5C10.8954 1.5 10 2.39543 10 3.5C10 3.67765 10.0232 3.84989 10.0666 4.01386L5.44266 6.61481C5.07872 6.23586 4.5669 6 4 6C2.89543 6 2 6.89543 2 8C2 9.10457 2.89543 10 4 10C4.5669 10 5.07872 9.76414 5.44266 9.38519L10.0666 11.9861C10.0232 12.1501 10 12.3224 10 12.5C10 13.6046 10.8954 14.5 12 14.5C13.1046 14.5 14 13.6046 14 12.5C14 11.3954 13.1046 10.5 12 10.5C11.4331 10.5 10.9213 10.7359 10.5573 11.1148L5.93337 8.51386C5.97684 8.34989 6 8.17765 6 8C6 7.82235 5.97684 7.65011 5.93337 7.48614L10.5573 4.88519ZM4.86402 7.49622C4.8664 7.50077 4.86886 7.50531 4.8714 7.50982C4.87404 7.51451 4.87675 7.51915 4.87951 7.52372C4.95636 7.66533 5 7.82757 5 8C5 8.17243 4.95636 8.33467 4.87951 8.47628C4.87675 8.48085 4.87404 8.48549 4.8714 8.49018C4.86886 8.49469 4.8664 8.49923 4.86402 8.50378C4.69059 8.80059 4.36858 9 4 9C3.44772 9 3 8.55228 3 8C3 7.44772 3.44772 7 4 7C4.36858 7 4.69059 7.19941 4.86402 7.49622ZM11.1205 12.0237C11.1232 12.0192 11.126 12.0145 11.1286 12.0098C11.1311 12.0053 11.1336 12.0008 11.136 11.9962C11.3094 11.6994 11.6314 11.5 12 11.5C12.5523 11.5 13 11.9477 13 12.5C13 13.0523 12.5523 13.5 12 13.5C11.4477 13.5 11 13.0523 11 12.5C11 12.3276 11.0436 12.1653 11.1205 12.0237Z" fill="#1F2937"/>
</svg>
