<svg width="22" height="22" viewBox="0 0 22 22" fill="none" xmlns="http://www.w3.org/2000/svg">
<g clip-path="url(#clip0_1_116)">
<path d="M16.0962 19.2505C15.9496 19.2511 15.805 19.2165 15.6745 19.1497L10.9995 16.7022L6.32454 19.1497C6.17273 19.2295 6.00157 19.2651 5.83052 19.2525C5.65947 19.2399 5.49539 19.1796 5.35693 19.0784C5.21847 18.9771 5.11118 18.8391 5.04727 18.6799C4.98335 18.5208 4.96537 18.3469 4.99537 18.178L5.91204 13.0172L2.13537 9.35051C2.01754 9.23293 1.93395 9.08548 1.89358 8.92398C1.85321 8.76249 1.85757 8.59305 1.9062 8.43385C1.95933 8.27093 2.05707 8.12617 2.18831 8.01599C2.31955 7.90581 2.47905 7.83463 2.6487 7.81051L7.8737 7.04968L10.1745 2.34718C10.2496 2.1922 10.3668 2.06149 10.5127 1.97004C10.6586 1.87858 10.8273 1.83008 10.9995 1.83008C11.1717 1.83008 11.3405 1.87858 11.4864 1.97004C11.6323 2.06149 11.7495 2.1922 11.8245 2.34718L14.1529 7.04051L19.3779 7.80135C19.5475 7.82546 19.707 7.89665 19.8383 8.00683C19.9695 8.11701 20.0672 8.26177 20.1204 8.42468C20.169 8.58388 20.1734 8.75332 20.133 8.91482C20.0926 9.07631 20.009 9.22376 19.8912 9.34135L16.1145 13.008L17.0312 18.1688C17.0639 18.3407 17.0468 18.5183 16.9818 18.6808C16.9169 18.8432 16.8068 18.9836 16.6645 19.0855C16.4985 19.2018 16.2987 19.2599 16.0962 19.2505Z" fill="#1F2937"/>
</g>
<defs>
<clipPath id="clip0_1_116">
<rect width="22" height="22" fill="white"/>
</clipPath>
</defs>
</svg>
