<svg width="22" height="18" viewBox="0 0 22 18" fill="none" xmlns="http://www.w3.org/2000/svg">
<path fill-rule="evenodd" clip-rule="evenodd" d="M5.37276 0.750003L5.375 0.75H16.625L16.6272 0.750003C17.3222 0.752079 17.9881 1.02907 18.4795 1.52048C18.9709 2.0119 19.2479 2.6778 19.25 3.37276L19.25 3.375V7.81613C19.6745 8.00219 20.065 8.2669 20.3991 8.60095C21.1013 9.30315 21.4971 10.2547 21.5 11.2478L21.5 11.25V16.125V16.5C21.5 16.9142 21.1642 17.25 20.75 17.25C20.3358 17.25 20 16.9142 20 16.5V16.1264C19.9995 16.0268 19.9597 15.9313 19.8892 15.8608C19.8187 15.7903 19.7233 15.7505 19.6236 15.75H2.37638C2.27672 15.7505 2.18127 15.7903 2.11079 15.8608C2.04031 15.9313 2.0005 16.0267 2 16.1264V16.5C2 16.9142 1.66421 17.25 1.25 17.25C0.835786 17.25 0.5 16.9142 0.5 16.5V16.125V11.25L0.500003 11.2478C0.502938 10.2547 0.898735 9.30315 1.60094 8.60095C1.93499 8.2669 2.32547 8.00219 2.75 7.81613V3.375L2.75 3.37276C2.75208 2.6778 3.02907 2.0119 3.52048 1.52048C4.0119 1.02907 4.6778 0.752079 5.37276 0.750003ZM2 14.2885C2.12179 14.2634 2.24664 14.2504 2.37282 14.25L2.375 14.25H19.625L19.6272 14.25C19.7534 14.2504 19.8782 14.2634 20 14.2885V11.2513C19.998 10.6549 19.7602 10.0834 19.3384 9.6616C18.9166 9.23985 18.3452 9.00203 17.7488 9H17H11H4.25119C3.65478 9.00203 3.08335 9.23985 2.66161 9.6616C2.23986 10.0834 2.00203 10.6548 2 11.2512V14.2885ZM11.75 7.5H17C16.9989 7.30146 16.9195 7.11133 16.7791 6.9709C16.6384 6.83018 16.4478 6.75079 16.2488 6.75H12.5012C12.3022 6.75079 12.1116 6.83018 11.9709 6.9709C11.8305 7.11133 11.7511 7.30146 11.75 7.5ZM17.75 5.82527C17.3393 5.45724 16.8064 5.25156 16.2521 5.25L16.25 5.25H12.5L12.4979 5.25C11.9435 5.25156 11.4107 5.45724 11 5.82527C10.5893 5.45724 10.0565 5.25156 9.5021 5.25L9.5 5.25H5.75L5.7479 5.25C5.19355 5.25156 4.66074 5.45724 4.25 5.82527V3.37626C4.25115 3.07792 4.37017 2.79212 4.58114 2.58114C4.79212 2.37017 5.07792 2.25115 5.37626 2.25H16.6237C16.9221 2.25115 17.2079 2.37017 17.4189 2.58114C17.6299 2.79215 17.7489 3.07801 17.75 3.37639V5.82527ZM5.2209 6.9709C5.08047 7.11133 5.00111 7.30146 5.00001 7.5H10.25C10.2489 7.30146 10.1695 7.11133 10.0291 6.9709C9.88838 6.83018 9.69776 6.75079 9.49877 6.75H5.75123C5.55224 6.75079 5.36162 6.83018 5.2209 6.9709Z" fill="#6B7280"/>
</svg>
